<?xml version="1.0" encoding="utf-8"?>
<!-- Generator: Adobe Illustrator 19.2.1, SVG Export Plug-In . SVG Version: 6.00 Build 0)  -->
<svg version="1.1" id="Layer_1" xmlns="http://www.w3.org/2000/svg" xmlns:xlink="http://www.w3.org/1999/xlink" x="0px" y="0px"
	 viewBox="0 0 432.3 31.1" style="enable-background:new 0 0 432.3 31.1;" xml:space="preserve">
<style type="text/css">
	.st0{fill:#FFFFFF;}
</style>
<g>
	<path class="st0" d="M167.9,26.3h12.3c0.5,0,0.8,0.2,0.8,0.7v2.7c0,0.5-0.3,0.8-0.8,0.8h-16.3c-0.6,0-0.9-0.3-0.9-0.8v-27
		c0-0.6,0.3-0.9,0.8-0.9h3.2c0.5,0,0.8,0.3,0.8,0.9v23.6H167.9z"/>
	<path class="st0" d="M189.3,3.8c0,0.3,0,0.7-0.1,1s-0.2,0.6-0.4,0.8c-0.2,0.2-0.4,0.4-0.8,0.5c-0.3,0.1-0.8,0.2-1.3,0.2
		c-0.6,0-1-0.1-1.4-0.2c-0.3-0.1-0.6-0.3-0.8-0.6c-0.2-0.2-0.3-0.5-0.3-0.8c-0.1-0.3-0.1-0.6-0.1-0.9c0-0.7,0.2-1.3,0.5-1.7
		c0.3-0.5,1-0.7,2-0.7c1.1,0,1.8,0.2,2.1,0.7C189.1,2.4,189.3,3,189.3,3.8 M189,29.7c0,0.2-0.1,0.4-0.1,0.6
		c-0.1,0.2-0.3,0.2-0.6,0.2h-3.1c-0.6,0-0.9-0.3-0.9-0.8V10.2c0-0.5,0.3-0.8,0.9-0.8h3.1c0.3,0,0.5,0.1,0.6,0.2
		c0.1,0.2,0.1,0.4,0.1,0.6V29.7z"/>
	<path class="st0" d="M202.2,25.2c0-0.1,0.1-0.4,0.3-0.9c0.2-0.5,0.4-1.1,0.6-1.7c0.2-0.7,0.5-1.6,0.8-2.5l3.5-10
		c0.1-0.2,0.2-0.4,0.3-0.5c0.1-0.1,0.4-0.2,0.7-0.2h3.3c0.6,0,0.7,0.3,0.5,0.8l-7.3,19.4c-0.1,0.3-0.3,0.5-0.4,0.7
		c-0.2,0.1-0.4,0.2-0.8,0.2h-2.9c-0.4,0-0.7-0.1-0.8-0.2c-0.1-0.1-0.3-0.4-0.4-0.7l-7.3-19.4c-0.1-0.2-0.1-0.4,0-0.6
		s0.2-0.3,0.5-0.3h3.4c0.3,0,0.5,0.1,0.7,0.2c0.1,0.1,0.3,0.3,0.4,0.6l3.5,10.1c0.3,0.8,0.5,1.6,0.7,2.3c0.2,0.6,0.4,1.2,0.5,1.7
		c0.2,0.5,0.3,0.8,0.3,0.9h-0.1V25.2z"/>
	<path class="st0" d="M218.5,21.3c0,1.1,0.2,2,0.4,2.7c0.2,0.7,0.5,1.3,1,1.7c0.4,0.4,1,0.7,1.6,0.9c0.6,0.2,1.4,0.3,2.3,0.3
		c0.8,0,1.7-0.1,2.8-0.2c1.1-0.1,2-0.2,2.8-0.3c0.4-0.1,0.7,0,0.8,0c0.2,0.1,0.3,0.3,0.3,0.7l0.3,1.4c0.1,0.3,0,0.6,0,0.8
		c-0.1,0.2-0.3,0.4-0.7,0.6c-0.4,0.2-0.9,0.3-1.5,0.5c-0.6,0.1-1.2,0.2-1.8,0.3c-0.6,0.1-1.3,0.2-1.9,0.2c-0.6,0.1-1.2,0.1-1.7,0.1
		c-2.1,0-3.7-0.3-5-0.9c-1.2-0.6-2.2-1.4-2.8-2.4c-0.7-1-1.1-2.2-1.3-3.5c-0.2-1.3-0.3-2.7-0.3-4.1c0-1,0.1-2.2,0.3-3.5
		c0.2-1.3,0.6-2.5,1.2-3.6s1.5-2.1,2.8-2.8c1.2-0.8,2.9-1.1,5-1.1c1.9,0,3.5,0.3,4.7,0.9s2.1,1.3,2.8,2.2c0.7,0.9,1.1,1.9,1.4,3.1
		c0.2,1.2,0.4,2.3,0.4,3.5c0,0.8-0.1,1.4-0.4,1.9s-0.9,0.7-1.7,0.7h-11.8V21.3z M222.8,12.9c-0.8,0-1.5,0.1-2,0.3
		c-0.5,0.2-0.9,0.6-1.3,1c-0.3,0.4-0.6,1-0.7,1.6s-0.2,1.4-0.3,2.2h8.5c0-0.7-0.1-1.3-0.2-1.9s-0.3-1.2-0.6-1.6
		c-0.3-0.5-0.7-0.9-1.3-1.2C224.4,13,223.7,12.9,222.8,12.9"/>
	<path class="st0" d="M250.2,16l-0.9,3.1l-3.2,10.6c-0.1,0.3-0.2,0.5-0.4,0.7c-0.2,0.1-0.4,0.2-0.8,0.2h-3.1c-0.4,0-0.7-0.1-0.9-0.2
		c-0.2-0.1-0.3-0.4-0.3-0.6l-7.7-26.9c-0.1-0.6,0-0.9,0.6-0.9h3.4c0.3,0,0.6,0.1,0.8,0.2c0.2,0.1,0.3,0.4,0.4,0.7
		c0.7,2.6,1.4,5,2,7.2c0.3,0.9,0.5,1.8,0.8,2.7c0.2,0.9,0.5,1.7,0.7,2.5c0.2,0.7,0.4,1.4,0.5,1.9s0.2,0.9,0.3,1.1l1.4,5.4h0.1
		l1.3-4.4c0-0.1,0.1-0.4,0.3-1c0.1-0.5,0.3-1.2,0.5-1.9c0.2-0.7,0.4-1.5,0.7-2.4c0.2-0.8,0.5-1.6,0.7-2.4c0.2-0.7,0.4-1.4,0.5-1.9
		s0.2-0.9,0.3-1l-1.8-5.8c-0.1-0.2-0.1-0.4,0-0.6s0.2-0.3,0.5-0.3h3.2c0.7,0,1.1,0.3,1.2,0.9c0.8,2.7,1.5,5.1,2.1,7.3
		c0.3,0.9,0.5,1.9,0.8,2.8s0.5,1.8,0.7,2.5c0.2,0.8,0.4,1.4,0.5,2s0.2,0.9,0.3,1.1l1.3,5h0.2l1.2-5.1c0.1-0.2,0.2-0.5,0.3-1.1
		c0.1-0.6,0.3-1.2,0.5-2s0.4-1.6,0.7-2.5c0.2-0.9,0.5-1.8,0.8-2.8c0.6-2.2,1.2-4.6,1.9-7.3c0.1-0.6,0.5-0.9,1.2-0.9h3.3
		c0.5,0,0.7,0.3,0.5,0.9l-7.5,26.8c-0.1,0.3-0.2,0.5-0.4,0.7c-0.2,0.1-0.5,0.2-0.9,0.2h-3c-0.5,0-0.8-0.1-0.9-0.2
		c-0.2-0.2-0.3-0.4-0.4-0.7l-3.2-10.7l-0.9-3L250.2,16z"/>
	<path class="st0" d="M272.7,21.3c0,1.1,0.2,2,0.4,2.7c0.2,0.7,0.5,1.3,1,1.7c0.4,0.4,1,0.7,1.6,0.9c0.6,0.2,1.4,0.3,2.3,0.3
		c0.8,0,1.7-0.1,2.8-0.2c1.1-0.1,2-0.2,2.8-0.3c0.4-0.1,0.7,0,0.8,0c0.2,0.1,0.3,0.3,0.3,0.7l0.3,1.4c0.1,0.3,0.1,0.6,0,0.8
		c-0.1,0.2-0.3,0.4-0.7,0.6c-0.4,0.2-0.9,0.3-1.5,0.5c-0.6,0.1-1.2,0.2-1.8,0.3c-0.6,0.1-1.3,0.2-1.9,0.2c-0.6,0.1-1.2,0.1-1.7,0.1
		c-2.1,0-3.7-0.3-5-0.9c-1.2-0.6-2.2-1.4-2.9-2.4c-0.7-1-1.1-2.2-1.3-3.5c-0.2-1.3-0.3-2.7-0.3-4.1c0-1,0.1-2.2,0.3-3.5
		c0.2-1.3,0.6-2.5,1.2-3.6s1.5-2.1,2.8-2.8c1.2-0.8,2.9-1.1,5-1.1c1.9,0,3.5,0.3,4.7,0.9s2.1,1.3,2.8,2.2c0.7,0.9,1.1,1.9,1.4,3.1
		c0.2,1.2,0.4,2.3,0.4,3.5c0,0.8-0.1,1.4-0.4,1.9s-0.9,0.7-1.7,0.7h-11.7V21.3z M277,12.9c-0.8,0-1.5,0.1-2,0.3
		c-0.5,0.2-0.9,0.6-1.3,1c-0.3,0.4-0.6,1-0.7,1.6s-0.2,1.4-0.3,2.2h8.5c0-0.7-0.1-1.3-0.2-1.9s-0.3-1.2-0.6-1.6
		c-0.3-0.5-0.7-0.9-1.3-1.2C278.6,13,277.9,12.9,277,12.9"/>
	<path class="st0" d="M294.4,25.2c0,0.7,0.1,1.1,0.5,1.2c0.3,0.2,0.8,0.2,1.6,0.2c0.3,0,0.5,0.1,0.6,0.1c0.1,0.1,0.2,0.2,0.2,0.4
		l0.2,2.2c0,0.3-0.2,0.6-0.6,0.8c-0.4,0.2-0.9,0.3-1.4,0.4s-1,0.1-1.4,0.1c-1.6,0-2.8-0.4-3.4-1.1s-1-1.8-1-3.3V0.8
		c0-0.5,0.3-0.8,0.8-0.8h3.1c0.5,0,0.8,0.3,0.8,0.8L294.4,25.2L294.4,25.2z"/>
	<path class="st0" d="M305.1,25.2c0,0.7,0.2,1.1,0.5,1.2c0.3,0.2,0.8,0.2,1.6,0.2c0.3,0,0.5,0.1,0.6,0.1c0.1,0.1,0.2,0.2,0.2,0.4
		l0.2,2.2c0,0.3-0.2,0.6-0.6,0.8c-0.4,0.2-0.9,0.3-1.4,0.4s-1,0.1-1.4,0.1c-1.6,0-2.8-0.4-3.4-1.1s-1-1.8-1-3.3V0.8
		c0-0.5,0.3-0.8,0.8-0.8h3.1c0.5,0,0.8,0.3,0.8,0.8L305.1,25.2L305.1,25.2z"/>
	<path class="st0" d="M21.9,10.8C21,6.5,17.4,4,13.3,4C5.8,4,2.7,10.2,2.7,16.4c0,6.2,3.2,12.4,10.6,12.4c5.2,0,8.5-4,9-9H25
		c-0.7,6.9-5.1,11.3-11.7,11.3C4.4,31.1,0,24.1,0,16.4S4.4,1.7,13.3,1.7c5.3,0,10.6,3.2,11.3,9.1L21.9,10.8L21.9,10.8z"/>
	<path class="st0" d="M44.1,30.5h-2.3v-3.7h-0.1c-1.3,2.7-4,4.3-7,4.3c-5.1,0-7.1-3-7.1-7.7V10.2h2.5v13.2c0.1,3.7,1.5,5.6,5.4,5.6
		c4.3,0,6.1-4,6.1-8.2V10.1h2.5L44.1,30.5L44.1,30.5z"/>
	<path class="st0" d="M47.8,10.1h2.3v3.4h0.1c1.3-2.4,3.4-4,6.7-4c2.7,0,5.1,1.3,5.8,4c1.2-2.7,3.8-4,6.5-4c4.5,0,6.7,2.3,6.7,7.1
		v13.8h-2.5V16.7c0-3.4-1.3-5.2-4.8-5.2c-4.3,0-5.5,3.5-5.5,7.3v11.5h-2.5V16.5c0-2.8-1.1-5-4.3-5c-4.3,0-6,3.2-6.1,7.5v11.4h-2.5
		L47.8,10.1L47.8,10.1z"/>
	<path class="st0" d="M79.7,10.1H82v3.4h0.1c1.3-2.4,3.4-4,6.7-4c2.7,0,5.1,1.3,5.8,4c1.2-2.7,3.8-4,6.5-4c4.5,0,6.7,2.3,6.7,7.1
		v13.8h-2.5V16.7c0-3.4-1.3-5.2-4.8-5.2c-4.3,0-5.5,3.5-5.5,7.3v11.5h-2.5V16.5c0-2.8-1.1-5-4.3-5c-4.3,0-6,3.2-6.1,7.5v11.4h-2.5
		L79.7,10.1L79.7,10.1z"/>
	<path class="st0" d="M111.6,3.8h2.5v2.5h-2.5V3.8z M111.6,10.1h2.5v20.3h-2.5V10.1z"/>
	<path class="st0" d="M117.8,10.1h2.5v3.5h0.1c0.9-2.4,3.6-4.1,6.5-4.1c5.7,0,7.5,3,7.5,7.8v13.1h-2.5V17.7c0-3.5-1.1-6.1-5.2-6.1
		c-3.9,0-6.3,3-6.4,7v11.9h-2.5V10.1z"/>
	<path class="st0" d="M150.2,16.1c-0.1-3.1-2.5-4.5-5.3-4.5c-2.2,0-4.8,0.9-4.8,3.5c0,2.2,2.5,3,4.2,3.4l3.3,0.8
		c2.8,0.4,5.8,2.1,5.8,5.6c0,4.4-4.4,6.1-8.2,6.1c-4.7,0-8-2.2-8.4-7.2h2.5c0.2,3.4,2.7,5.1,6,5.1c2.3,0,5.6-1,5.6-3.9
		c0-2.4-2.2-3.2-4.5-3.7l-3.2-0.7c-3.2-0.9-5.7-2-5.7-5.4c0-4.1,4.1-5.7,7.7-5.7c4.1,0,7.3,2.1,7.5,6.5h-2.5V16.1z"/>
	<path class="st0" d="M337.6,10.8C336.7,6.5,333.1,4,329,4c-7.5,0-10.6,6.2-10.6,12.4c0,6.2,3.2,12.4,10.6,12.4c5.2,0,8.5-4,9-9h2.7
		c-0.7,6.9-5.1,11.3-11.7,11.3c-8.9,0-13.3-7-13.3-14.7S320.1,1.7,329,1.7c5.3,0,10.6,3.2,11.3,9.1L337.6,10.8L337.6,10.8z"/>
	<path class="st0" d="M344.8,21c0,3.6,1.9,8,6.7,8c3.6,0,5.6-2.1,6.4-5.2h2.5c-1.1,4.6-3.7,7.3-8.9,7.3c-6.5,0-9.2-5-9.2-10.8
		c0-5.4,2.7-10.8,9.2-10.8s9.1,5.7,9,11.4h-15.7V21z M357.9,18.9c-0.1-3.7-2.4-7.3-6.5-7.3s-6.3,3.5-6.7,7.3H357.9z"/>
	<path class="st0" d="M362.8,10.1h2.5v3.5h0.1c0.9-2.4,3.6-4.1,6.5-4.1c5.7,0,7.5,3,7.5,7.8v13.1h-2.5V17.7c0-3.5-1.1-6.1-5.2-6.1
		c-3.9,0-6.3,3-6.4,7v11.9h-2.5L362.8,10.1L362.8,10.1z"/>
	<path class="st0" d="M386.9,10.1h4.1v2.1h-4.1v13.7c0,1.6,0.2,2.6,2,2.7c0.7,0,1.4,0,2.1-0.1v2.1c-0.8,0-1.5,0.1-2.2,0.1
		c-3.3,0-4.5-1.1-4.4-4.6V12.2h-3.5v-2.1h3.5V4h2.5L386.9,10.1L386.9,10.1z"/>
	<path class="st0" d="M395.1,21c0,3.6,1.9,8,6.7,8c3.6,0,5.6-2.1,6.4-5.2h2.5c-1.1,4.6-3.7,7.3-8.9,7.3c-6.5,0-9.2-5-9.2-10.8
		c0-5.4,2.7-10.8,9.2-10.8s9.1,5.7,9,11.4h-15.7V21z M408.3,18.9c-0.1-3.7-2.4-7.3-6.5-7.3s-6.3,3.5-6.7,7.3H408.3z"/>
	<path class="st0" d="M413.2,10.1h2.3v4.8h0.1c1.3-3.3,4-5.2,7.7-5v2.5c-4.5-0.2-7.6,3.1-7.6,7.3v10.8h-2.5V10.1z"/>
	<polygon class="st0" points="421.9,25.3 426.2,25.3 426.2,26.1 424.5,26.1 424.5,30.5 423.6,30.5 423.6,26.1 421.9,26.1 	"/>
	<polygon class="st0" points="426.9,25.3 428.2,25.3 429.7,29.3 429.7,29.3 431.1,25.3 432.3,25.3 432.3,30.5 431.5,30.5 
		431.5,26.5 431.5,26.5 430,30.5 429.3,30.5 427.8,26.5 427.8,26.5 427.8,30.5 426.9,30.5 	"/>
</g>
</svg>
