<?xml version="1.0" encoding="utf-8"?>
<!-- Generator: Adobe Illustrator 19.2.1, SVG Export Plug-In . SVG Version: 6.00 Build 0)  -->
<svg version="1.1" id="Layer_1" xmlns="http://www.w3.org/2000/svg" xmlns:xlink="http://www.w3.org/1999/xlink" x="0px" y="0px"
	 viewBox="0 0 159 35" style="enable-background:new 0 0 159 35;" xml:space="preserve">
<style type="text/css">
	.st0{fill:#FFFFFF;}
	.st1{filter:url(#Adobe_OpacityMaskFilter);}
	.st2{mask:url(#mask-2);fill:#FFFFFF;}
</style>
<title>Room Board</title>
<desc>Created with Sketch.</desc>
<g id="Room-Boards---Hallway">
	<g id="Open" transform="translate(-566.000000, -88.000000)">
		<g id="logo-combo-2" transform="translate(43.000000, 88.000000)">
			<g id="Room-Board-brand-blue" transform="translate(523.000000, 0.000000)">
				<path id="RoomBoards" class="st0" d="M38.1,34l-3.9-6.3c1.9-0.3,3.8-1.9,3.8-4.7c0-3-2.1-5-5.3-5h-7v16h2.8v-6h2.8l3.5,6H38.1z
					 M32.4,25.6h-3.9v-5.1h3.9c1.6,0,2.7,1,2.7,2.5C35.1,24.5,34,25.6,32.4,25.6L32.4,25.6z M46,34.3c3.7,0,6-2.8,6-6.1
					c0-3.3-2.3-6.1-6-6.1c-3.7,0-6,2.7-6,6.1C40,31.5,42.3,34.3,46,34.3L46,34.3z M46,32.1c-2.1,0-3.3-1.8-3.3-3.9
					c0-2,1.2-3.8,3.3-3.8c2.2,0,3.3,1.8,3.3,3.8C49.3,30.3,48.1,32.1,46,32.1L46,32.1z M59.8,34.3c3.7,0,6-2.8,6-6.1
					c0-3.3-2.3-6.1-6-6.1c-3.7,0-6,2.7-6,6.1C53.8,31.5,56.1,34.3,59.8,34.3L59.8,34.3z M59.8,32.1c-2.1,0-3.3-1.8-3.3-3.9
					c0-2,1.2-3.8,3.3-3.8c2.2,0,3.3,1.8,3.3,3.8C63.1,30.3,61.9,32.1,59.8,32.1L59.8,32.1z M85,34v-8.4c0-2.4-1.2-3.5-3.3-3.5
					c-1.8,0-3.3,1.1-3.9,2.1c-0.4-1.2-1.4-2.1-3.2-2.1c-1.8,0-3.3,1.2-3.8,1.8v-1.6h-2.5V34h2.5v-8.1c0.5-0.7,1.6-1.5,2.7-1.5
					c1.4,0,1.9,0.8,1.9,2.1V34h2.5v-8.1c0.5-0.8,1.6-1.5,2.7-1.5c1.4,0,1.9,0.8,1.9,2.1V34H85z M95.4,34c2.9,0,4.6-1.7,4.6-4.3
					c0-1.9-1.4-3.7-3.1-3.9c1.4-0.3,2.8-1.7,2.8-3.7c0-2.5-1.7-4.1-4.4-4.1h-6.6v16H95.4z M95.1,25.2h-5v-5.9h5c2.1,0,3.1,1.3,3.1,3
					C98.2,23.9,97.1,25.2,95.1,25.2L95.1,25.2z M95.2,32.8H90v-6.3h5.1c2.2,0,3.4,1.5,3.4,3.2C98.5,31.5,97.3,32.8,95.2,32.8
					L95.2,32.8z M108.3,34.3c3.4,0,5.6-2.7,5.6-6.1s-2.2-6.1-5.6-6.1c-3.4,0-5.5,2.7-5.5,6.1S104.9,34.3,108.3,34.3L108.3,34.3z
					 M108.3,33.2c-2.7,0-4.2-2.4-4.2-5c0-2.6,1.5-4.9,4.2-4.9c2.7,0,4.2,2.4,4.2,4.9C112.5,30.8,111,33.2,108.3,33.2L108.3,33.2z
					 M125.7,34v-8.2c0-2.6-1.9-3.7-4.2-3.7c-1.9,0-3.3,0.6-4.5,1.9l0.7,0.9c1.1-1.2,2.2-1.7,3.6-1.7c1.7,0,3.1,0.9,3.1,2.7v2.4
					c-1-1.1-2.3-1.7-3.9-1.7c-2,0-4.1,1.3-4.1,3.8c0,2.5,2.1,3.9,4.1,3.9c1.6,0,2.9-0.5,3.9-1.7V34H125.7z M120.9,33.3
					c-1.9,0-3.2-1.2-3.2-2.9c0-1.7,1.3-2.9,3.2-2.9c1.4,0,2.7,0.5,3.5,1.6v2.5C123.6,32.8,122.3,33.3,120.9,33.3L120.9,33.3z
					 M130.8,34v-8.4c0.5-1,2.1-2.1,3.3-2.1c0.2,0,0.4,0,0.6,0v-1.4c-1.6,0-2.9,0.9-3.9,2.2v-2h-1.2V34H130.8z M147,34V18h-1.3v6.3
					c-0.9-1.3-2.4-2.2-4-2.2c-3.1,0-5.2,2.4-5.2,6.1c0,3.7,2.1,6.1,5.2,6.1c1.7,0,3.2-0.9,4-2.1V34H147z M141.9,33.2
					c-2.6,0-4.1-2.1-4.1-4.9s1.5-5,4.1-5c1.6,0,3.1,1,3.8,2.1v5.7C145.1,32.2,143.5,33.2,141.9,33.2L141.9,33.2z M154.3,34.3
					c2.9,0,4.3-1.5,4.3-3.4c0-4.5-7.3-2.7-7.3-5.6c0-1.2,1.1-2.1,2.9-2.1c1.5,0,2.8,0.6,3.5,1.5l0.7-0.9c-0.8-0.9-2.2-1.7-4.2-1.7
					c-2.6,0-4.1,1.4-4.1,3.2c0,4.2,7.3,2.4,7.3,5.5c0,1.3-1.2,2.4-3.1,2.4c-1.6,0-3-0.8-3.7-1.7l-0.7,0.9
					C151,33.7,152.5,34.3,154.3,34.3L154.3,34.3z"/>
				<g id="Page-1">
					<g id="Group-3">
						<g id="Clip-2">
						</g>
						<defs>
							<filter id="Adobe_OpacityMaskFilter" filterUnits="userSpaceOnUse" x="0" y="0" width="19" height="34">
								<feColorMatrix  type="matrix" values="1 0 0 0 0  0 1 0 0 0  0 0 1 0 0  0 0 0 1 0"/>
							</filter>
						</defs>
						<mask maskUnits="userSpaceOnUse" x="0" y="0" width="19" height="34" id="mask-2">
							<g class="st1">
								<polygon id="path-1" class="st0" points="19,34 0,34 0,0 19,0 								"/>
							</g>
						</mask>
						<path id="Fill-1" class="st2" d="M17,29H2V13h15v9h0V29z M10.6,32.6C10.3,32.9,9.9,33,9.5,33c-0.4,0-0.8-0.1-1.1-0.4
							S8,31.9,8,31.5c0-0.4,0.1-0.8,0.4-1.1C8.7,30.2,9.1,30,9.5,30c0.4,0,0.8,0.1,1.1,0.4c0.3,0.3,0.4,0.6,0.4,1.1
							C11,31.9,10.9,32.3,10.6,32.6L10.6,32.6z M17,10c-0.2,0-0.3,0-0.5,0h-14c-0.7,0-1.3,0.2-1.8,0.7C0.2,11.2,0,11.8,0,12.5v19
							c0,0.7,0.2,1.3,0.7,1.8S1.8,34,2.5,34h14c0.7,0,1.3-0.2,1.8-0.7c0.5-0.5,0.7-1.1,0.7-1.8V22h0V0h-2V10z"/>
					</g>
					<polygon id="Fill-4" class="st0" points="38,0 21,0 21,10 38,10 41,5 					"/>
				</g>
			</g>
		</g>
	</g>
</g>
</svg>
